<mxfile host="app.diagrams.net" modified="2023-04-30T06:51:06.789Z" agent="Mozilla/5.0 (Macintosh; Intel Mac OS X 10.15; rv:109.0) Gecko/20100101 Firefox/112.0" version="21.2.3" etag="uH0AXbJg-lJttGzSRHn4" type="github">
  <diagram name="第 1 页" id="mOkVFzH9hmIFDdKWX7hk">
    <mxGraphModel>
      <root>
        <mxCell id="0" />
        <mxCell id="1" parent="0" />
      </root>
    </mxGraphModel>
  </diagram>
</mxfile>
